<?xml version="1.0" standalone="no"?>
<!DOCTYPE svg PUBLIC "-//W3C//DTD SVG 20010904//EN"
 "http://www.w3.org/TR/2001/REC-SVG-20010904/DTD/svg10.dtd">
<svg version="1.0" xmlns="http://www.w3.org/2000/svg"
 width="64.000000pt" height="64.000000pt" viewBox="0 0 64.000000 64.000000"
 preserveAspectRatio="xMidYMid meet">

<g transform="translate(0.000000,64.000000) scale(0.100000,-0.100000)"
fill="#000000" stroke="none">
<path d="M10 620 c0 -6 63 -10 169 -10 150 0 171 -2 192 -19 15 -11 51 -78 89
-161 56 -126 68 -145 103 -167 l40 -25 -7 -53 c-9 -77 -13 -85 -51 -85 -25 0
-35 5 -40 20 -11 33 -35 50 -72 50 -28 0 -43 -8 -69 -35 -32 -34 -34 -35 -113
-35 -47 0 -81 -4 -81 -10 0 -6 35 -10 85 -10 69 0 85 -3 85 -15 0 -27 38 -55
76 -55 29 0 43 7 68 35 25 27 40 35 68 35 44 0 55 13 68 80 13 70 5 97 -39
125 -32 20 -46 43 -101 165 -38 83 -74 150 -89 161 -21 17 -42 19 -202 19
-113 0 -179 -4 -179 -10z m454 -483 c26 -19 17 -65 -16 -90 -62 -46 -112 35
-52 82 31 24 44 26 68 8z"/>
<path d="M100 495 c0 -13 13 -15 85 -13 111 4 111 22 0 26 -72 2 -85 0 -85
-13z"/>
<path d="M356 483 c-2 -10 -10 -51 -17 -92 -12 -72 -12 -74 10 -92 29 -24 121
-27 121 -5 0 11 -15 16 -52 18 l-53 3 0 40 c1 22 4 64 9 93 5 34 4 52 -2 52
-6 0 -13 -8 -16 -17z"/>
<path d="M170 370 c0 -5 20 -10 45 -10 25 0 45 5 45 10 0 6 -20 10 -45 10 -25
0 -45 -4 -45 -10z"/>
<path d="M10 90 c0 -5 16 -10 35 -10 19 0 35 5 35 10 0 6 -16 10 -35 10 -19 0
-35 -4 -35 -10z"/>
</g>
</svg>
